<svg
        xmlns="http://www.w3.org/2000/svg"
        viewBox="0 0 160 160"
        width="64px"
        preserve-aspect-ratio="xMinYMid meet"
        data-v-3be78e13=""
      >
        <path
          fill="#01C696"
          fill-rule="evenodd"
          d="M0 80C0 35.89 35.89 0 80 0s80 35.89 80 80-35.89 80-80 80S0 124.11 0 80zm85.353-7.788V61.14L66.86 79.633l18.493 18.492v-11.14h31.626l-35.38 35.38-42.767-42.767 42.766-42.766 22.656 22.655A7.386 7.386 0 10114.7 49.042L86.82 21.163a7.386 7.386 0 00-10.445 0L23.163 74.376a7.386 7.386 0 000 10.445l53.213 53.212a7.386 7.386 0 0010.445 0l48.694-48.693c2.02-1.975 3.32-4.512 3.32-7.482 0-2.97-1.3-5.508-3.38-7.542a7.386 7.386 0 00-5.163-2.104h-44.94z"
        ></path>
      </svg>