<svg xmlns="http://www.w3.org/2000/svg" width="66" height="70" viewBox="0 0 66 70" fill="#fff">
  <path fill-rule="evenodd" d="M7.19513657,24.5333333 L15.0618032,16.6666667 L37.8618032,39.4666667 L22.2618032,39.4666667 L7.19513657,24.5333333 Z M26.5284699,24.9333333 L16.6618032,15.0666667 L24.3951366,7.2 L42.1284699,24.9333333 L26.5284699,24.9333333 Z M50.2618032,14.2666667 C52.6426501,16.6413623 53.8618032,18.8264425 53.8618032,20.6666667 L53.8618032,24.9333333 L45.3284699,24.9333333 L25.9951366,5.6 L29.9951366,1.6 C31.0324558,0.559519072 32.3804748,0 33.8618032,0 C35.2481146,0 36.5960397,0.559519072 37.5951366,1.6 L50.2618032,14.2666667 Z M5.59513657,26 L33.8618032,54.2666667 L48.6618032,39.4666667 L41.0618032,39.4666667 L28.6618032,27.0666667 L57.5951366,27.0666667 C59.6607161,27.1248483 61.7148524,27.9822119 63.1951366,29.4666667 C64.6944736,30.8930853 65.4893714,32.8235899 65.4618032,34.9333333 C65.4335265,37.013492 64.5940655,39.0882875 63.1951366,40.6666667 L33.8618032,70 L25.1951366,61.3333333 L24.7951366,60.9333333 L1.59513657,37.7333333 C-0.532182241,35.5603157 -0.531242089,32.1230438 1.59513657,30 L5.59513657,26 Z"/>
</svg>
